<?xml version="1.0" encoding="utf-8"?>
<!-- Generator: Adobe Illustrator 25.0.0, SVG Export Plug-In . SVG Version: 6.00 Build 0)  -->
<svg version="1.1" id="Слой_1" xmlns="http://www.w3.org/2000/svg" xmlns:xlink="http://www.w3.org/1999/xlink" x="0px" y="0px"
	 viewBox="0 0 2500 2500" style="enable-background:new 0 0 2500 2500;" xml:space="preserve">
<style type="text/css">
	.st0{fill:#004482;}
	.st1{fill:#00599C;}
	.st2{fill:#659AD2;}
	.st3{fill:#FFFFFF;}
</style>
<path class="st0" d="M2318.3,758.7c0.8-37.3-8.2-74.1-26-106.9c-18.5-31.6-45.3-57.7-77.4-75.4c-284.6-164.3-569.2-328.4-854-492.2
	c-76.7-44.3-151-42.8-227.2,2.3C1020.5,153,453.4,478.3,284.4,576.3C214.8,616.6,181,678.4,181,758.6v990.9
	c-0.7,36.5,7.9,72.6,25.1,104.8c18.5,32.6,45.8,59.4,78.6,77.5c169,98.3,736.2,423.2,849.4,490c76.2,45,150.5,46.6,227.3,2.3
	c284.5-164.4,569.1-328.5,854-492.4c32.9-18.1,60.1-44.9,78.6-77.5c17.2-32.2,25.8-68.3,25.1-104.8V758.7H2318.3z"/>
<path class="st1" d="M2318.5,1749.5c0.7,36.5-7.9,72.6-25.1,104.8c-4.2,7.7-9,15-14.3,22L1249.7,1254l965.2-677.6
	c32.1,17.7,58.8,43.8,77.3,75.4c18,32.7,27,69.6,26.1,106.9C2318.5,1089,2318.5,1749.5,2318.5,1749.5L2318.5,1749.5z"/>
<path class="st2" d="M2292.2,651.8L205.8,1854.2c-17.1-32.2-25.6-68.2-24.9-104.7v-991c0-80.2,33.9-141.9,103.4-182.3
	c169.1-98,736.2-423.3,849.5-490c76-45,150.4-46.6,227.1-2.3c284.5,164.4,569.1,328.5,854,492.4
	C2247,594.1,2273.6,620.2,2292.2,651.8z"/>
<path class="st3" d="M1290.9,1654.3c-143.1,0.2-274.9-77.5-344.1-202.8c-3.5-6.2-6.8-12.5-9.8-18.9
	c-94.5-195.2-12.9-430,182.3-524.5c163.2-79,359.2-36,474.4,104c5.2,6.3,9.8,12.9,15,19.7c2.4,3.2,4.7,6.5,6.9,9.8l344.7-198.6
	c-8.4-13.5-17.2-26.6-26.3-39.3c-4.8-6.8-9.8-13.3-14.5-19.7C1654.9,440.4,1161.7,376.2,818,640.8
	C516,873.3,424.5,1289,600.9,1626.8c3.3,6.3,6.8,12.5,9.8,18.7c213.9,377.4,693.3,510,1070.7,296.1
	c111.4-63.1,205.7-152.6,274.6-260.5L1619,1477.3C1546.5,1587.8,1423.1,1654.4,1290.9,1654.3L1290.9,1654.3z"/>
</svg>
